<svg version="1.2" xmlns="http://www.w3.org/2000/svg" viewBox="0 0 359 200" width="359" height="200"><defs><clipPath clipPathUnits="userSpaceOnUse" id="cp1"><path d="m-917-600h1440v2525h-1440z" /></clipPath><clipPath clipPathUnits="userSpaceOnUse" id="cp2"><path d="m-917-600h1440v700h-1440z" /></clipPath></defs><style>.s0{fill:#2c6269}.s1{fill:#012f34}.s2{fill:#79c8c7}.s3{fill:#f67e7e}</style><g clip-path="url(#cp1)"><g clip-path="url(#cp2)"><path class="s0" d="m0 100c0-55.2 44.8-100 100-100c55.2 0 100 44.8 100 100c0 55.2-44.8 100-100 100c-55.2 0-100-44.8-100-100z" /><path class="s0" d="m0 100c0-55.2 44.8-100 100-100c55.2 0 100 44.8 100 100c0 55.2-44.8 100-100 100c-55.2 0-100-44.8-100-100z" /><path fill-rule="evenodd" class="s1" d="m158 100c0-55.2 44.8-100 100-100c55.2 0 100 44.8 100 100c0 55.2-44.8 100-100 100c-55.2 0-100-44.8-100-100zm100 33c18.2 0 33-14.8 33-33c0-18.2-14.8-33-33-33c-18.2 0-33 14.8-33 33c0 18.2 14.8 33 33 33z" /><path class="s2" d="m358 43h-43v-43h43z" /><path fill-rule="evenodd" class="s3" d="m133.5 100c0-55.2 44.8-100 100-100c55.2 0 100 44.8 100 100c0 55.2-44.8 100-100 100c-55.2 0-100-44.8-100-100zm100 33c18.2 0 33-14.8 33-33c0-18.2-14.8-33-33-33c-18.2 0-33 14.8-33 33c0 18.2 14.8 33 33 33z" /><path class="s2" d="m0 0h100v4h-100zm0 8h100v4h-100zm0 8h100v4h-100zm0 8h100v4h-100zm0 8h100v4h-100zm0 8h100v4h-100z" /></g></g></svg>