<svg version="1.2" xmlns="http://www.w3.org/2000/svg" viewBox="0 0 101 200" width="101" height="200"><defs><clipPath clipPathUnits="userSpaceOnUse" id="cp1"><path d="m0-250h1440v2525h-1440z" /></clipPath><clipPath clipPathUnits="userSpaceOnUse" id="cp2"><path d="m0-250h1440v700h-1440z" /></clipPath></defs><style>.s0{fill:#79c8c7}.s1{fill:#012f34}.s2{fill:#2c6269}</style><g clip-path="url(#cp1)"><g clip-path="url(#cp2)"><path class="s0" d="m0 100h100v100h-100z" /><path class="s0" d="m0 100h100v100h-100z" /><path fill-rule="evenodd" class="s1" d="m0 200c-55.2 0-100-44.8-100-100c0-55.2 44.8-100 100-100c55.2 0 100 44.8 100 100c0 55.2-44.8 100-100 100zm33-100c0-18.2-14.8-33-33-33c-18.2 0-33 14.8-33 33c0 18.2 14.8 33 33 33c18.2 0 33-14.8 33-33z" /><path fill-rule="evenodd" class="s1" d="m0 200c-55.2 0-100-44.8-100-100c0-55.2 44.8-100 100-100c55.2 0 100 44.8 100 100c0 55.2-44.8 100-100 100zm33-100c0-18.2-14.8-33-33-33c-18.2 0-33 14.8-33 33c0 18.2 14.8 33 33 33c18.2 0 33-14.8 33-33z" /><path class="s2" d="m100 160h-4v-4h4zm0 8h-4v-4h4zm0 8h-4v-4h4zm0 8h-4v-4h4zm0 8h-4v-4h4zm0 8h-4v-4h4z" /><path class="s2" d="m93 160h-4v-4h4zm0 8h-4v-4h4zm0 8h-4v-4h4zm0 8h-4v-4h4zm0 8h-4v-4h4zm0 8h-4v-4h4z" /><path class="s2" d="m86 160h-4v-4h4zm0 8h-4v-4h4zm0 8h-4v-4h4zm0 8h-4v-4h4zm0 8h-4v-4h4zm0 8h-4v-4h4z" /><path class="s2" d="m86 160h-4v-4h4zm0 8h-4v-4h4zm0 8h-4v-4h4zm0 8h-4v-4h4zm0 8h-4v-4h4zm0 8h-4v-4h4z" /><path class="s2" d="m79 160h-4v-4h4zm0 8h-4v-4h4zm0 8h-4v-4h4zm0 8h-4v-4h4zm0 8h-4v-4h4zm0 8h-4v-4h4z" /><path class="s2" d="m72 160h-4v-4h4zm0 8h-4v-4h4zm0 8h-4v-4h4zm0 8h-4v-4h4zm0 8h-4v-4h4zm0 8h-4v-4h4z" /><path class="s2" d="m65 160h-4v-4h4zm0 8h-4v-4h4zm0 8h-4v-4h4zm0 8h-4v-4h4zm0 8h-4v-4h4zm0 8h-4v-4h4z" /><path class="s2" d="m58 160h-4v-4h4zm0 8h-4v-4h4zm0 8h-4v-4h4zm0 8h-4v-4h4zm0 8h-4v-4h4zm0 8h-4v-4h4z" /><path class="s2" d="m51 160h-4v-4h4zm0 8h-4v-4h4zm0 8h-4v-4h4zm0 8h-4v-4h4zm0 8h-4v-4h4zm0 8h-4v-4h4z" /></g></g></svg>