<svg version="1.2" xmlns="http://www.w3.org/2000/svg" viewBox="0 0 73 72" width="73" height="72"><defs><clipPath clipPathUnits="userSpaceOnUse" id="cp1"><path d="m-734-1150h1440v2525h-1440z" /></clipPath></defs><style>.s0{fill:#2c6269}.s1{fill:#000000}</style><g clip-path="url(#cp1)"><path class="s0" d="m17 44c0-15.5 12.5-28 28-28c15.5 0 28 12.5 28 28c0 15.5-12.5 28-28 28c-15.5 0-28-12.5-28-28z" /><path class="s1" d="m57 54.8c0 0.7-0.5 1.2-1.2 1.2h-53.6c-0.7 0-1.2-0.5-1.2-1.2c0-0.6 0.5-1.1 1.2-1.1h53.6c0.7 0 1.2 0.5 1.2 1.1z" /><path fill-rule="evenodd" class="s1" d="m12.7 40.8v14c0 0.7-0.6 1.2-1.2 1.2h-7c-0.6 0-1.2-0.5-1.2-1.2v-14c0-0.6 0.6-1.1 1.2-1.1h7c0.6 0 1.2 0.5 1.2 1.1zm-2.4 12.9v-11.7h-4.6v11.7z" /><path fill-rule="evenodd" class="s1" d="m26.7 29.2v25.6c0 0.7-0.6 1.2-1.2 1.2h-7c-0.6 0-1.2-0.5-1.2-1.2v-25.6c0-0.7 0.6-1.2 1.2-1.2h7c0.6 0 1.2 0.5 1.2 1.2zm-2.4 1.1h-4.6v23.4h4.6z" /><path fill-rule="evenodd" class="s1" d="m40.7 33.8v21c0 0.7-0.6 1.2-1.2 1.2h-7c-0.6 0-1.2-0.5-1.2-1.2v-21c0-0.6 0.6-1.1 1.2-1.1h7c0.6 0 1.2 0.5 1.2 1.1zm-2.4 19.9v-18.7h-4.6v18.7z" /><path fill-rule="evenodd" class="s1" d="m54.7 19.8v35c0 0.7-0.6 1.2-1.2 1.2h-7c-0.6 0-1.2-0.5-1.2-1.2v-35c0-0.6 0.6-1.1 1.2-1.1h7c0.6 0 1.2 0.5 1.2 1.1zm-2.4 33.9v-32.7h-4.6v32.7z" /><path fill-rule="evenodd" class="s1" d="m12.7 25.7c0 2.5-2.1 4.6-4.7 4.6c-2.6 0-4.7-2.1-4.7-4.6c0-2.6 2.1-4.7 4.7-4.7c2.6 0 4.7 2.1 4.7 4.7zm-2.4 0c0-1.3-1-2.4-2.3-2.4c-1.3 0-2.3 1.1-2.3 2.4c0 1.3 1 2.3 2.3 2.3c1.3 0 2.3-1 2.3-2.3z" /><path fill-rule="evenodd" class="s1" d="m26.7 14c0 2.6-2.1 4.7-4.7 4.7c-2.6 0-4.7-2.1-4.7-4.7c0-2.6 2.1-4.7 4.7-4.7c2.6 0 4.7 2.1 4.7 4.7zm-2.4 0c0-1.3-1-2.3-2.3-2.3c-1.3 0-2.3 1-2.3 2.3c0 1.3 1 2.3 2.3 2.3c1.3 0 2.3-1 2.3-2.3z" /><path fill-rule="evenodd" class="s1" d="m40.7 18.7c0 2.5-2.1 4.6-4.7 4.6c-2.6 0-4.7-2.1-4.7-4.6c0-2.6 2.1-4.7 4.7-4.7c2.6 0 4.7 2.1 4.7 4.7zm-2.4 0c0-1.3-1-2.4-2.3-2.4c-1.3 0-2.3 1.1-2.3 2.4c0 1.3 1 2.3 2.3 2.3c1.3 0 2.3-1 2.3-2.3z" /><path fill-rule="evenodd" class="s1" d="m54.7 4.7c0 2.5-2.1 4.6-4.7 4.6c-2.6 0-4.7-2.1-4.7-4.6c0-2.6 2.1-4.7 4.7-4.7c2.6 0 4.7 2.1 4.7 4.7zm-2.4 0c0-1.3-1-2.4-2.3-2.4c-1.3 0-2.3 1.1-2.3 2.4c0 1.3 1 2.3 2.3 2.3c1.3 0 2.3-1 2.3-2.3z" /><path class="s1" d="m48.4 8l-9.1 9c-0.2 0.2-0.5 0.4-0.8 0.4c-0.3 0-0.6-0.2-0.9-0.4c-0.4-0.4-0.4-1.2 0-1.6l9.1-9.1c0.5-0.4 1.2-0.4 1.7 0c0.4 0.5 0.4 1.2 0 1.7z" /><path class="s1" d="m34 17.4c-0.2 0.5-0.6 0.9-1.1 0.9q-0.2 0-0.4-0.1l-7.5-2.1c-0.6-0.2-0.9-0.8-0.8-1.5c0.2-0.6 0.9-0.9 1.5-0.8l7.5 2.2c0.6 0.2 1 0.8 0.8 1.4z" /><path class="s1" d="m20 17.1l-8.8 7q-0.3 0.3-0.7 0.3c-0.4 0-0.7-0.2-0.9-0.5c-0.4-0.5-0.4-1.2 0.1-1.6l8.8-7c0.5-0.4 1.3-0.4 1.7 0.2c0.4 0.5 0.3 1.2-0.2 1.6z" /></g></svg>