<svg version="1.2" xmlns="http://www.w3.org/2000/svg" viewBox="0 0 200 201" width="200" height="201"><defs><clipPath clipPathUnits="userSpaceOnUse" id="cp1"><path d="m-1240-2028h1440v2525h-1440z" /></clipPath><clipPath clipPathUnits="userSpaceOnUse" id="cp2"><path d="m-1240-644h1440v745h-1440z" /></clipPath></defs><style>.s0{fill:#2c6269}.s1{fill:#012f34}.s2{fill:#79c8c7}</style><g clip-path="url(#cp1)"><g clip-path="url(#cp2)"><path class="s0" d="m100 1h100v100h-100z" /><path fill-rule="evenodd" class="s1" d="m100 201c-55.2 0-100-44.8-100-100c0-55.2 44.8-100 100-100c55.2 0 100 44.8 100 100c0 55.2-44.8 100-100 100zm33-100c0-18.2-14.8-33-33-33c-18.2 0-33 14.8-33 33c0 18.2 14.8 33 33 33c18.2 0 33-14.8 33-33z" /><path class="s2" d="m200 61h-100v-4h100zm0 8h-100v-4h100zm0 8h-100v-4h100zm0 8h-100v-4h100zm0 8h-100v-4h100zm0 8h-100v-4h100z" /><path class="s0" d="m200 105h-4v-4h4zm0 8h-4v-4h4zm0 8h-4v-4h4zm0 8h-4v-4h4zm0 8h-4v-4h4zm0 8h-4v-4h4z" /><path class="s0" d="m193 105h-4v-4h4zm0 8h-4v-4h4zm0 8h-4v-4h4zm0 8h-4v-4h4zm0 8h-4v-4h4zm0 8h-4v-4h4z" /><path class="s0" d="m186 105h-4v-4h4zm0 8h-4v-4h4zm0 8h-4v-4h4zm0 8h-4v-4h4zm0 8h-4v-4h4zm0 8h-4v-4h4z" /><path class="s0" d="m179 105h-4v-4h4zm0 8h-4v-4h4zm0 8h-4v-4h4zm0 8h-4v-4h4zm0 8h-4v-4h4zm0 8h-4v-4h4z" /><path class="s0" d="m172 105h-4v-4h4zm0 8h-4v-4h4zm0 8h-4v-4h4zm0 8h-4v-4h4zm0 8h-4v-4h4zm0 8h-4v-4h4z" /><path class="s0" d="m165 105h-4v-4h4zm0 8h-4v-4h4zm0 8h-4v-4h4zm0 8h-4v-4h4zm0 8h-4v-4h4zm0 8h-4v-4h4z" /><path class="s0" d="m158 105h-4v-4h4zm0 8h-4v-4h4zm0 8h-4v-4h4zm0 8h-4v-4h4zm0 8h-4v-4h4zm0 8h-4v-4h4z" /><path class="s0" d="m151 105h-4v-4h4zm0 8h-4v-4h4zm0 8h-4v-4h4zm0 8h-4v-4h4zm0 8h-4v-4h4zm0 8h-4v-4h4z" /></g></g></svg>