<svg version="1.2" xmlns="http://www.w3.org/2000/svg" viewBox="0 0 25 24" width="25" height="24"><defs><clipPath clipPathUnits="userSpaceOnUse" id="cp1"><path d="m-1170-2377h1440v2525h-1440z" /></clipPath></defs><style>.s0{fill:#ffffff}</style><g clip-path="url(#cp1)"><path class="s0" d="m25 1.3v21.4c0 0.7-0.6 1.3-1.3 1.3h-6.1v-9.3h3.1l0.4-3.6h-3.5v-2.3c0-1.1 0.3-1.8 1.8-1.8h1.9v-3.2c-0.4-0.1-1.5-0.2-2.8-0.2c-2.8 0-4.7 1.7-4.7 4.8v2.7h-3.1v3.6h3.1v9.3h-11.5c-0.7 0-1.3-0.6-1.3-1.3v-21.4c0-0.7 0.6-1.3 1.3-1.3h21.4c0.7 0 1.3 0.6 1.3 1.3z" /></g></svg>