<svg version="1.2" xmlns="http://www.w3.org/2000/svg" viewBox="0 0 24 24" width="24" height="24"><defs><clipPath clipPathUnits="userSpaceOnUse" id="cp1"><path d="m-1211-2377h1440v2525h-1440z" /></clipPath></defs><style>.s0{fill:#ffffff}</style><g clip-path="url(#cp1)"><path class="s0" d="m24 12c0 6.6-5.4 12-12 12q-1.9 0-3.6-0.5c0.5-0.8 1.3-2.1 1.5-3.2l0.8-2.8c0.4 0.7 1.5 1.3 2.7 1.3c3.7 0 6.3-3.3 6.3-7.4c0-4-3.3-7-7.4-7c-5.2 0-8 3.5-8 7.3c0 1.8 1 4 2.5 4.7q0.3 0.1 0.4-0.2l0.3-1.4q0.1-0.1-0.1-0.3c-0.5-0.6-0.9-1.7-0.9-2.7c0-2.7 2-5.3 5.4-5.3c3 0 5.1 2.1 5.1 4.9c0 3.3-1.7 5.5-3.8 5.5c-1.2 0-2.1-0.9-1.8-2.1c0.4-1.5 1-3 1-4c0-1-0.5-1.7-1.5-1.7c-1.2 0-2.2 1.2-2.2 2.9c0 1 0.4 1.8 0.4 1.8c0 0-1.2 5-1.4 5.9c-0.3 1.1-0.2 2.5-0.1 3.5c-4.4-1.8-7.6-6.1-7.6-11.2c0-6.6 5.4-12 12-12c6.6 0 12 5.4 12 12z" /></g></svg>