<svg version="1.2" xmlns="http://www.w3.org/2000/svg" viewBox="0 0 25 20" width="25" height="20"><defs><clipPath clipPathUnits="userSpaceOnUse" id="cp1"><path d="m-1251-2379h1440v2525h-1440z" /></clipPath></defs><style>.s0{fill:#ffffff}</style><g clip-path="url(#cp1)"><path class="s0" d="m21.5 5.1c0.4 6.9-4.8 14.7-14 14.7c-2.7 0-5.3-0.9-7.5-2.3c2.6 0.3 5.2-0.4 7.3-2c-2.2 0-4-1.5-4.6-3.4c0.8 0.1 1.5 0.1 2.2-0.1c-2.4-0.5-4-2.6-3.9-4.9c0.6 0.4 1.4 0.6 2.2 0.6c-2.2-1.4-2.8-4.3-1.5-6.6c2.4 3 6 5 10.1 5.2c-0.7-3.1 1.6-6.1 4.8-6.1c1.4 0 2.7 0.6 3.6 1.6q1.7-0.3 3.1-1.2c-0.3 1.2-1.1 2.1-2.1 2.7q1.5-0.2 2.8-0.7c-0.7 0.9-1.5 1.8-2.5 2.5z" /></g></svg>