<svg version="1.2" xmlns="http://www.w3.org/2000/svg" viewBox="0 0 200 244" width="200" height="244"><defs><clipPath clipPathUnits="userSpaceOnUse" id="cp1"><path d="m0-2185h1440v2525h-1440z" /></clipPath><clipPath clipPathUnits="userSpaceOnUse" id="cp2"><path d="m0-56h1440v200h-1440z" /></clipPath></defs><style>.s0{fill:#2c6269}.s1{fill:#004047}.s2{fill:#f67e7e}</style><g clip-path="url(#cp1)"><g clip-path="url(#cp2)"><path class="s0" d="m100 144h-100v-100h100z" /><path fill-rule="evenodd" class="s1" d="m0 144c0-55.2 44.8-100 100-100c55.2 0 100 44.8 100 100c0 55.2-44.8 100-100 100c-55.2 0-100-44.8-100-100zm100 33c18.2 0 33-14.8 33-33c0-18.2-14.8-33-33-33c-18.2 0-33 14.8-33 33c0 18.2 14.8 33 33 33z" /><path class="s2" d="m0 100h100v4h-100zm0 8h100v4h-100zm0 8h100v4h-100zm0 8h100v4h-100zm0 8h100v4h-100zm0 8h100v4h-100z" /><path class="s0" d="m0 0h4v4h-4zm0 8h4v4h-4zm0 8h4v4h-4zm0 8h4v4h-4zm0 8h4v4h-4zm0 8h4v4h-4z" /><path class="s0" d="m7 0h4v4h-4zm0 8h4v4h-4zm0 8h4v4h-4zm0 8h4v4h-4zm0 8h4v4h-4zm0 8h4v4h-4z" /><path class="s0" d="m14 0h4v4h-4zm0 8h4v4h-4zm0 8h4v4h-4zm0 8h4v4h-4zm0 8h4v4h-4zm0 8h4v4h-4z" /><path class="s0" d="m21 0h4v4h-4zm0 8h4v4h-4zm0 8h4v4h-4zm0 8h4v4h-4zm0 8h4v4h-4zm0 8h4v4h-4z" /><path class="s0" d="m28 0h4v4h-4zm0 8h4v4h-4zm0 8h4v4h-4zm0 8h4v4h-4zm0 8h4v4h-4zm0 8h4v4h-4z" /><path class="s0" d="m35 0h4v4h-4zm0 8h4v4h-4zm0 8h4v4h-4zm0 8h4v4h-4zm0 8h4v4h-4zm0 8h4v4h-4z" /><path class="s0" d="m42 0h4v4h-4zm0 8h4v4h-4zm0 8h4v4h-4zm0 8h4v4h-4zm0 8h4v4h-4zm0 8h4v4h-4z" /><path class="s0" d="m49 0h4v4h-4zm0 8h4v4h-4zm0 8h4v4h-4zm0 8h4v4h-4zm0 8h4v4h-4zm0 8h4v4h-4z" /></g></g></svg>