<svg version="1.2" xmlns="http://www.w3.org/2000/svg" viewBox="0 0 68 57" width="68" height="57"><defs><clipPath clipPathUnits="userSpaceOnUse" id="cp1"><path d="m-306-1675h1440v2525h-1440z" /></clipPath></defs><style>.s0{fill:#2c6269}</style><g clip-path="url(#cp1)"><path fill-rule="evenodd" class="s0" d="m41.1 52.6q-4.1-4.5-4.1-12.5q0-5.5 2.6-12.5q2.5-7.1 6.9-14.1q4.3-7 9.9-12.5h11.6q-2.6 6.1-3.9 11.1q-1.4 5.1-1.4 9.2q0 4.7 1.2 8.1q1.2 3.3 2.5 6.5q1.3 3.2 1.3 7.7q0 5.5-4.2 9.4q-4.3 4-11.2 4q-7.1 0-11.2-4.4zm-24.8 4.4q6.9 0 11.2-4q4.2-3.9 4.2-9.4q0-4.5-1.3-7.7q-1.3-3.2-2.5-6.5q-1.2-3.4-1.2-8.1q0-4.1 1.4-9.2q1.3-5 3.9-11.1h-11.6q-5.6 5.5-9.9 12.5q-4.4 7-6.9 14.1q-2.6 7-2.6 12.5q0 8 4.1 12.5q4.1 4.4 11.2 4.4z" /></g></svg>