<svg version="1.2" xmlns="http://www.w3.org/2000/svg" viewBox="0 0 160 41" width="160" height="41"><defs><clipPath clipPathUnits="userSpaceOnUse" id="cp1"><path d="m-167-76h1440v2525h-1440z" /></clipPath></defs><style>.s0{fill:#ffffff}</style><g clip-path="url(#cp1)"><path fill-rule="evenodd" class="s0" d="m0 30.5v-21.3h6.2v3.1q0.8-1.7 2.2-2.6q1.5-0.9 3.3-0.9q4.9 0 6.7 3.7q2.2-3.8 6.2-3.8q3.9 0 6 2.5q2 2.6 2 7.2v12.1h-6.1v-11.4q0-1.9-0.9-3.1q-1-1.1-2.6-1.1q-1.6 0-2.6 1.1q-0.9 1-0.9 3.2v11.3h-6.2v-11.5q-0.1-1.9-1.1-3q-0.9-1.1-2.5-1.1q-1.5 0-2.5 1.1q-1 1-1 3.2v11.3zm44.6 10.5l12.9-31.8h-6.6l-4.6 12.1l-4.6-12.1h-6.6l8 19.1l-5 12.7zm23.7-10.5v-16.3h4.4v-5h-4.4v-8.2h-6.2v8.2h-3.8v5h3.8v16.3zm17.4 0.5q6.7 0 9.6-4.4l-4.5-3.1q-1.6 2-4.6 2q-1.9 0-3.4-0.9q-1.6-1-1.7-2.7h15.2q0.1-1.9 0.1-1.9q0-5-3-8.2q-3.1-3.1-7.7-3.1q-4.6 0-7.7 3.1q-3.1 3.1-3.1 8q0 4.9 3.1 8.1q3.1 3.1 7.7 3.1zm-4.6-13q0.4-1.8 1.8-2.8q1.3-0.9 2.9-0.9q1.6 0 2.9 1q1.3 0.9 1.5 2.7zm28.5 12.9q1.6 0.1 3.4-0.7q1.8-0.7 2.7-2.1v2.4h6.1v-21.3h-6.1v2.4q-0.9-1.4-2.7-2.1q-1.7-0.8-3.4-0.8q-4.1 0-7.3 3.1q-3.3 3.1-3.3 8q0 5 3.2 8.1q3.1 3 7.4 3zm1-6q-2.1 0-3.6-1.4q-1.6-1.5-1.6-3.6q0-2.2 1.6-3.7q1.7-1.4 3.7-1.4q2 0 3.5 1.4q1.5 1.4 1.5 3.7q0 2.2-1.5 3.6q-1.5 1.4-3.6 1.4zm22.8 5.6v-11.3q0-2.2 1-3.2q1-1.1 2.6-1.1q1.5 0 2.4 1.1q1 1.1 1.1 3v11.5h6.2v-11.3q0-2.2 0.9-3.2q1-1.1 2.6-1.1q1.6 0 2.6 1.1q0.9 1.2 0.9 3.1v11.4h6.2v-12.1q0-4.6-2.1-7.2q-2.1-2.5-6-2.5q-3.9 0-6.2 3.8q-1.8-3.7-6.7-3.7q-1.8 0-3.3 0.9q-1.4 0.9-2.2 2.6v-3.1h-6.2v21.3z" /></g></svg>